<svg xmlns="http://www.w3.org/2000/svg" viewBox="0 0 300 300">
  <defs>
    <style>
      .a {
        fill: #fff;
      }
    </style>
  </defs>
  <rect width="300" height="300" />
  <path class="a" d="M57,230.65V67.75a5,5,0,0,1,2.16-4.07A8.74,8.74,0,0,1,64.68,62a9.27,9.27,0,0,1,5.64,1.68,5,5,0,0,1,2.28,4.08v72.62a35.51,35.51,0,0,1,31.92-18.46q17.76,0,30.36,13.2a44.26,44.26,0,0,1,12.6,31.68V193q0,18-12.84,31.8T105,238.56a38,38,0,0,1-19.92-5.46q-9.12-5.46-13-13.23v10.7A5.79,5.79,0,0,1,70,234.94a7.6,7.6,0,0,1-5.28,1.94,8.12,8.12,0,0,1-5.4-1.92A5.57,5.57,0,0,1,57,230.65Zm15.6-30.36q0,6.45,9,15t20.52,8.59q12,0,20.88-9.55t8.88-21.48v-26q0-11.69-8.88-21t-21.12-9.31a28.91,28.91,0,0,0-20.4,8.35q-8.88,8.36-8.88,22Z" />
  <path class="a" d="M243,195.12v35.45a5.37,5.37,0,0,1-2.4,4.61,9.32,9.32,0,0,1-5.52,1.7,9.17,9.17,0,0,1-5.64-1.7,5.44,5.44,0,0,1-2.28-4.61V195.12h-61q-6.24,0-6.24-6.28a8.06,8.06,0,0,1,1-4.07L221.16,66.23a7.85,7.85,0,0,1,7.44-4.79,8.45,8.45,0,0,1,5.16,1.92,5.62,5.62,0,0,1,2.52,4.56,8,8,0,0,1-.72,3.12L180.12,180.48h47V133.74q0-6.05,7.92-6.06a9.84,9.84,0,0,1,5.52,1.58,5.06,5.06,0,0,1,2.4,4.48v46.74" />
</svg>
